<svg xmlns="http://www.w3.org/2000/svg" xmlns:xlink="http://www.w3.org/1999/xlink" width="600" height="597.4942" viewBox="-3576 0 3333.5726 3319.0817">
<title>Brazilian flag in outline of the map of Brazil</title>
<defs id="defs4">
<clipPath id="shape">
<path id="brazil" d="m -3502,2139 c 10,13 26,21 37,35 10,14 16,31 24,46 8,15 24,28 25,45 0,13 -18,19 -22,32 -3,9 -1,20 2,29 3,7 8,16 15,15 13,-3 20,-19 32,-25 6,-2 14,-3 20,0 7,4 6,18 14,20 8,2 14,-11 23,-10 8,1 17,7 22,15 10,16 8,37 19,52 10,11 25,18 40,19 13,2 28,-3 39,-12 11,-9 12,-27 22,-37 7,-6 19,-3 27,-7 10,-5 18,-12 27,-18 8,-3 18,-16 23,-9 10,14 8,34 9,51 4,50 -11,103 3,151 4,14 29,9 44,7 17,-3 30,-19 47,-22 19,-4 39,1 59,2 26,2 51,4 76,5 29,1 59,7 87,0 14,-3 24,-17 32,-29 5,-10 -3,-25 5,-32 7,-8 21,-8 32,-8 6,1 10,12 17,10 14,-5 26,-16 37,-27 11,-12 13,-31 27,-39 6,-5 15,11 22,7 12,-7 15,-25 25,-34 12,-13 25,-25 41,-33 20,-8 43,-10 64,-14 12,-3 23,-5 35,-5 12,0 24,6 37,5 8,-1 14,-7 22,-10 6,-2 16,-11 20,-5 10,16 15,37 14,57 0,13 -15,23 -17,37 -2,15 0,31 5,46 4,11 17,17 20,27 3,12 4,26 0,37 -3,7 -19,5 -20,13 -1,14 10,28 15,41 6,17 8,35 17,50 14,20 31,39 51,54 15,11 38,10 53,22 10,8 6,27 16,34 13,8 29,8 44,7 14,0 27,-5 40,-9 6,-2 10,-9 15,-8 20,5 39,14 56,25 12,8 17,25 30,32 10,5 23,-3 33,2 15,7 23,25 38,33 13,7 29,8 44,11 8,2 19,-3 26,2 19,14 26,40 46,51 16,10 36,12 54,8 11,-2 11,-23 22,-25 16,-2 30,7 44,14 14,6 26,15 38,23 17,9 40,12 50,28 8,14 -7,34 -4,50 5,20 22,37 27,57 4,16 0,33 0,50 0,4 4,11 0,13 -9,4 -22,-4 -31,2 -5,4 -1,13 2,19 6,10 19,14 23,25 8,18 11,39 14,59 2,15 -4,31 2,46 5,14 15,32 30,36 34,9 70,1 105,2 33,1 66,2 99,4 11,0 31,-9 33,1 2,15 -23,24 -25,39 -2,11 11,19 15,30 6,16 6,35 15,50 8,11 23,15 33,24 11,11 22,23 32,35 13,15 28,28 36,46 8,16 9,35 8,53 -1,18 -6,35 -11,52 -7,21 -17,41 -25,62 -8,21 -16,42 -23,63 -5,15 -16,30 -12,44 3,11 21,9 29,17 5,5 10,14 6,20 -5,7 -20,0 -25,7 -8,10 -13,24 -12,36 2,17 13,31 20,46 4,10 9,19 13,29 4,9 10,18 11,28 3,18 2,36 0,54 -1,10 -6,20 -7,30 -1,10 3,21 2,31 -1,11 -9,22 -8,34 1,14 2,32 13,38 11,6 23,-10 35,-11 15,-1 30,4 45,6 15,1 30,-1 44,1 10,2 19,7 29,10 9,2 18,9 27,6 10,-4 10,-26 21,-25 13,1 15,23 26,29 17,8 41,-1 56,11 16,12 22,34 28,53 10,31 9,63 17,94 5,18 8,40 21,53 12,11 31,10 46,12 20,1 40,-7 59,-2 18,5 41,13 46,30 6,20 -16,40 -17,61 -1,15 10,29 9,44 -1,14 -14,26 -15,40 -1,8 12,15 10,23 -3,8 -18,4 -21,12 -5,10 -2,23 0,34 2,10 1,26 11,29 20,5 43,-18 61,-8 21,11 27,39 36,61 6,13 11,28 10,42 -1,8 -14,11 -15,19 -3,13 4,27 4,40 -1,13 -3,26 -8,38 -6,16 -14,32 -25,44 -7,7 -17,11 -27,13 -14,5 -31,2 -45,8 -17,7 -30,21 -44,32 -11,9 -20,19 -31,27 -18,13 -40,20 -57,34 -10,9 -16,22 -25,33 -10,12 -22,24 -32,36 -7,9 -11,19 -19,27 -11,10 -26,14 -36,25 -11,10 -14,26 -23,38 -8,10 -20,16 -27,26 -9,15 -9,36 -21,48 -11,11 -32,7 -44,17 -10,10 -11,25 -15,38 -3,9 -11,21 -4,27 7,6 19,-7 29,-6 7,2 11,14 19,14 6,0 9,-9 13,-14 4,-4 4,-12 10,-15 9,-5 20,-9 30,-7 6,0 8,9 13,13 6,4 15,5 20,11 6,9 4,22 11,29 8,8 23,5 30,13 8,8 8,20 12,29 4,10 6,21 13,29 4,3 12,1 17,0 8,-2 15,-6 21,-10 4,-2 8,-4 10,-8 2,-5 -1,-12 2,-17 2,-3 7,-4 11,-4 9,2 23,1 25,10 3,9 -13,14 -15,23 -2,8 0,17 6,23 14,16 31,29 49,40 15,8 33,7 48,15 12,7 21,20 30,31 9,10 15,23 25,32 14,11 36,13 48,27 14,15 15,38 27,55 33,46 78,22 47,74 -3,6 -10,8 -15,12 -5,4 -11,6 -15,11 -4,5 -7,11 -8,17 -2,12 -5,24 -2,36 2,8 8,15 15,20 6,3 13,3 19,0 6,-2 8,-9 14,-12 10,-5 22,-7 32,-13 14,-8 29,-17 38,-30 7,-9 7,-22 9,-33 2,-8 2,-17 4,-25 1,-8 5,-16 8,-23 7,-17 19,-32 21,-49 2,-10 -11,-19 -11,-29 0,-7 9,-12 11,-19 5,-11 4,-24 10,-34 11,-20 24,-39 40,-56 6,-6 17,-7 25,-13 6,-4 12,-9 15,-15 4,-10 0,-22 4,-33 4,-12 14,-21 21,-32 5,-8 13,-15 13,-25 0,-6 -8,-8 -11,-13 -6,-9 -12,-19 -16,-29 -1,-3 -3,-11 0,-11 12,-2 26,-1 35,7 10,10 8,29 17,40 5,7 13,12 21,12 5,0 2,-9 4,-13 1,-4 0,-13 4,-12 7,2 7,15 15,17 5,2 8,-13 11,-9 6,4 7,15 2,21 -5,6 -20,0 -25,7 -5,8 4,19 0,27 -4,10 -15,14 -21,23 -3,6 -1,15 -7,19 -13,8 -34,0 -42,11 -9,13 8,32 2,46 -4,9 -19,5 -27,10 -7,4 -11,12 -17,17 -14,11 -33,18 -44,32 -5,7 -6,21 0,27 8,8 22,12 33,7 9,-4 7,-19 14,-27 8,-10 20,-16 31,-24 14,-10 30,-18 42,-29 10,-9 15,-23 24,-31 10,-9 25,-10 33,-20 13,-15 20,-34 30,-51 6,-11 13,-22 17,-34 5,-16 8,-33 11,-50 0,-5 -3,-11 0,-16 5,-7 15,-10 21,-17 4,-5 3,-14 7,-19 7,-8 22,-11 25,-21 3,-10 -7,-21 -8,-32 0,-4 0,-11 4,-12 9,-1 18,11 27,8 9,-3 13,-14 19,-21 8,-9 14,-20 25,-27 14,-9 33,-9 47,-19 11,-7 17,-20 25,-30 6,-9 14,-17 17,-27 5,-15 3,-31 6,-46 4,-19 15,-37 17,-57 1,-9 -11,-17 -9,-27 2,-15 19,-26 21,-42 1,-10 -13,-16 -16,-26 -4,-17 -3,-33 -3,-50 0,-15 1,-29 3,-44 4,-19 6,-39 14,-57 6,-13 26,-19 27,-33 0,-11 -19,-13 -25,-22 -2,-3 -2,-8 0,-12 3,-5 8,-9 13,-13 1,-1 -1,2 0,2 14,-2 33,27 50,24 21,-3 18,-40 32,-57 14,-16 34,-27 52,-40 23,-16 47,-30 70,-46 13,-8 24,-19 36,-28 10,-7 19,-15 29,-21 15,-9 32,-13 48,-21 14,-7 24,-22 40,-25 18,-3 36,9 55,10 17,0 35,0 50,-8 15,-8 21,-27 34,-38 12,-10 31,-12 42,-23 8,-9 7,-24 13,-34 5,-8 9,-18 17,-19 13,-3 25,6 37,9 11,3 21,11 32,10 11,-2 18,-17 29,-19 10,-3 21,-2 30,3 9,5 10,17 17,23 6,5 14,8 21,8 22,-2 44,-4 63,-13 8,-5 3,-24 12,-25 9,-2 11,15 19,19 15,6 32,2 48,7 9,4 14,22 24,20 21,-5 39,-20 52,-37 8,-11 -1,-30 7,-42 8,-10 25,-11 37,-17 25,-13 54,-23 76,-42 7,-6 6,-18 4,-27 -1,-5 -13,-7 -12,-13 2,-8 9,-18 18,-19 7,-1 14,20 19,13 7,-10 -2,-26 0,-40 1,-8 3,-16 7,-23 12,-17 28,-33 42,-49 15,-17 32,-32 46,-50 6,-7 6,-19 11,-26 18,-25 38,-46 58,-69 17,-20 39,-36 51,-59 11,-20 14,-44 17,-67 3,-19 -2,-40 2,-59 4,-21 12,-40 21,-59 11,-23 26,-44 40,-65 10,-14 27,-24 33,-40 6,-18 -2,-39 2,-57 7,-34 18,-67 30,-100 10,-26 23,-50 34,-76 4,-9 12,-17 12,-27 0,-14 -10,-27 -10,-41 1,-14 13,-25 12,-39 -2,-20 -19,-37 -19,-57 -1,-20 10,-38 15,-57 7,-26 22,-51 21,-78 -1,-23 -25,-41 -25,-63 0,-23 19,-42 27,-63 4,-11 3,-24 9,-34 6,-9 22,-11 23,-21 2,-13 -18,-21 -17,-33 1,-9 15,-22 23,-17 14,9 8,38 23,46 14,7 32,-4 46,-12 13,-8 20,-24 32,-34 20,-18 45,-30 63,-50 16,-17 25,-40 36,-61 1,-1 0,-4 0,-5 2,-13 3,-26 8,-39 6,-14 17,-26 23,-42 2,-7 -7,-18 0,-22 6,-5 15,14 21,9 12,-9 11,-28 21,-40 12,-15 27,-27 42,-40 26,-23 53,-46 80,-69 12,-9 26,-16 36,-28 8,-9 6,-25 15,-33 7,-6 19,0 27,-5 9,-7 17,-17 21,-27 3,-8 -5,-18 0,-25 15,-21 39,-35 57,-55 16,-18 33,-36 44,-57 14,-25 20,-53 31,-79 12,-31 29,-60 36,-93 6,-31 4,-64 4,-95 -1,-39 -4,-78 -8,-117 -2,-23 -7,-47 -11,-70 -3,-18 -4,-37 -10,-54 -11,-32 -22,-66 -40,-95 -7,-12 -20,-20 -32,-25 -33,-12 -67,-19 -102,-23 -23,-2 -47,10 -70,4 -30,-7 -56,-26 -82,-42 -27,-17 -50,-38 -74,-57 -26,-21 -52,-41 -77,-63 -25,-23 -47,-48 -72,-71 -20,-18 -39,-38 -63,-51 -27,-15 -60,-18 -88,-31 -19,-9 -33,-27 -53,-34 -25,-9 -51,-11 -77,-11 -25,-1 -51,0 -76,5 -19,4 -36,23 -55,21 -22,-2 -37,-23 -57,-32 -14,-7 -29,-12 -44,-14 -19,-1 -38,8 -56,4 -10,-2 -13,-17 -23,-21 -16,-5 -35,3 -51,-4 -9,-3 -7,-19 -15,-22 -21,-10 -45,-8 -67,-16 -7,-2 -11,-16 -17,-13 -9,4 -4,23 -14,27 -11,4 -24,-3 -34,-10 -7,-5 -2,-27 -9,-23 -13,8 -9,30 -20,40 -5,6 -16,4 -24,2 -8,-2 -14,-10 -21,-13 -7,-3 -17,-10 -21,-4 -11,14 -8,34 -16,50 -5,13 -13,25 -22,36 -10,11 -28,14 -35,27 -9,15 -3,69 -11,53 -10,-19 1,-44 6,-65 2,-12 12,-21 15,-32 2,-9 -2,-20 2,-29 4,-13 13,-23 21,-34 6,-9 15,-17 23,-25 4,-5 14,-9 13,-15 -1,-7 -10,-14 -17,-14 -11,1 -18,23 -27,18 -8,-5 5,-19 10,-27 4,-8 15,-13 15,-21 -1,-11 -10,-20 -17,-27 -5,-5 -15,-3 -19,-7 -10,-11 -13,-27 -23,-37 -4,-3 -11,0 -16,-2 -7,-2 -13,-13 -21,-11 -10,2 -21,11 -24,21 -5,12 16,36 4,38 -15,2 -26,-20 -29,-34 -2,-11 17,-20 15,-31 -1,-8 -12,-14 -21,-15 -5,-1 -7,12 -11,9 -7,-3 -1,-19 -8,-21 -13,-3 -25,11 -38,10 -13,-1 -22,-16 -34,-17 -6,-1 -9,15 -14,11 -8,-7 1,-27 -9,-30 -12,-4 -23,20 -35,15 -15,-6 -16,-31 -30,-40 -19,-12 -44,-12 -65,-19 -22,-7 -42,-21 -65,-23 -6,-1 12,18 6,17 -19,-3 -33,-23 -52,-25 -9,-1 -12,14 -21,18 -10,5 -22,3 -32,9 -10,6 -17,17 -25,25 -12,12 -24,25 -36,38 -8,9 -23,15 -23,27 1,17 34,30 25,44 -9,13 -29,-19 -44,-16 -16,4 -24,24 -38,33 -4,2 -10,0 -15,0 -17,0 -35,-4 -50,2 -17,6 -27,27 -44,34 -12,5 -27,1 -40,0 -16,-1 -33,-14 -48,-8 -14,6 -9,40 -24,39 -23,-3 -27,-44 -50,-48 -14,-3 -13,31 -27,34 -9,2 -20,-15 -17,-25 5,-14 28,-15 34,-28 7,-15 4,-32 0,-48 -2,-11 -7,-29 -19,-29 -33,2 -63,22 -95,33 -31,11 -60,25 -92,32 -18,4 -41,12 -57,0 -9,-6 11,-22 21,-26 22,-9 51,4 69,-10 18,-14 17,-42 25,-63 2,-6 0,-13 4,-19 17,-30 35,-60 57,-88 23,-29 49,-57 76,-84 15,-14 34,-23 48,-38 21,-22 40,-45 57,-70 15,-23 37,-45 40,-73 2,-17 -11,-36 -27,-44 -22,-11 -52,4 -74,-7 -15,-8 -21,-28 -25,-44 -2,-10 8,-19 6,-29 -4,-18 -14,-34 -21,-51 -10,-24 -24,-47 -31,-73 -7,-24 -7,-51 -11,-76 -3,-18 1,-39 -8,-55 -13,-25 -27,-60 -55,-63 -19,-3 20,41 9,57 -7,11 -19,-32 -30,-25 -31,19 -47,56 -67,86 -23,36 -41,75 -61,113 -9,17 -20,35 -28,53 -8,15 -6,36 -19,46 -18,13 -42,18 -63,15 -18,-3 -26,-27 -42,-32 -8,-3 -13,12 -21,11 -11,-1 -18,-18 -29,-15 -21,5 -34,32 -55,34 -20,2 -35,-20 -54,-25 -6,-1 -12,9 -17,6 -22,-13 -32,-47 -57,-50 -36,-3 -66,33 -101,37 -16,1 -27,-27 -42,-23 -18,4 -36,21 -38,40 -3,21 25,36 26,57 1,9 -14,16 -22,13 -22,-8 -33,-36 -56,-42 -9,-2 9,22 2,29 -11,12 -29,17 -46,17 -15,0 -27,-15 -42,-17 -22,-2 -48,-5 -68,6 -9,4 9,26 0,30 -25,11 -55,-2 -80,6 -7,2 6,18 0,21 -11,4 -24,-13 -35,-8 -22,13 -28,47 -51,56 -19,7 -41,-5 -59,-14 -25,-12 -49,-29 -67,-49 -11,-13 -17,-31 -19,-48 -2,-16 14,-32 9,-48 -3,-13 -25,-15 -30,-28 -10,-23 -15,-49 -12,-73 2,-11 20,-14 25,-25 5,-10 -4,-24 2,-34 11,-16 40,-18 46,-36 7,-22 -8,-45 -13,-67 -5,-16 -10,-33 -18,-48 -4,-8 -10,-18 -19,-22 -9,-5 -25,4 -32,-4 -15,-17 -24,-39 -27,-61 -2,-15 18,-28 14,-42 -4,-11 -19,-19 -31,-17 -13,2 -18,20 -31,26 -8,4 -18,5 -26,2 -10,-4 -18,-30 -23,-21 -7,11 12,24 13,36 2,12 3,26 -4,35 -12,17 -31,29 -49,38 -23,11 -51,10 -73,23 -12,7 -12,29 -24,36 -18,10 -39,11 -60,13 -21,3 -44,-7 -64,0 -20,7 -37,21 -48,39 -6,10 7,25 2,36 -3,6 -15,6 -21,2 -12,-9 -14,-29 -27,-37 -12,-6 -28,2 -42,-1 -24,-6 -49,-12 -70,-25 -17,-10 -21,-43 -40,-42 -24,0 -45,23 -56,44 -7,14 -5,38 8,47 17,13 46,-7 63,6 12,10 7,32 4,48 -3,12 -14,21 -19,32 -6,13 -13,26 -14,40 -1,20 3,40 8,59 3,12 9,23 17,31 6,5 15,5 23,8 11,4 22,14 34,13 11,-1 17,-20 27,-17 13,4 34,23 24,33 -20,18 -59,-1 -79,17 -28,25 -22,76 -50,99 -12,9 -14,-37 -29,-35 -18,2 -22,29 -35,41 -25,23 -56,41 -81,64 -13,12 -16,45 -33,41 -19,-3 -9,-40 -24,-52 -11,-9 -31,-9 -42,0 -14,13 0,53 -19,55 -29,2 -49,-31 -73,-46 -19,-13 -43,-21 -57,-40 -7,-10 6,-27 0,-39 -16,-33 -28,-80 -63,-90 -25,-7 -28,50 -53,55 -18,3 -21,-32 -37,-40 -10,-4 -27,-1 -31,9 -5,14 25,39 11,44 -53,17 -112,4 -169,6 -20,1 -52,-16 -61,3 -16,34 -7,78 9,111 6,14 29,1 44,0 11,0 25,-12 33,-4 10,10 9,29 6,44 -2,11 -10,26 -22,26 -15,0 -22,-28 -37,-26 -23,2 -50,16 -59,37 -14,32 -6,69 0,103 2,13 14,22 24,31 9,8 24,8 31,17 9,13 9,31 15,46 5,12 17,21 17,33 1,20 -11,38 -13,57 -1,18 7,37 5,55 -13,93 -31,186 -51,278 -8,36 -6,81 -33,105 -14,13 -31,-31 -50,-28 -24,3 -34,38 -57,44 -14,3 -23,-21 -37,-20 -13,1 -17,20 -29,24 -13,5 -29,-6 -41,0 -24,11 -41,33 -62,48 -20,16 -46,25 -63,44 -19,22 -31,50 -42,77 -8,19 -11,40 -13,61 -2,16 3,33 0,48 -4,22 -8,46 -22,64 -11,14 -37,9 -46,24 -12,19 -7,44 -9,66 -1,13 7,28 0,39 -6,10 -27,3 -33,13 -5,9 3,21 9,29 7,9 22,8 29,17 7,10 4,24 8,36 4,11 8,23 16,33 z M -320,928 c 13,-23 25,-47 42,-67 13,-15 33,-51 46,-36 16,19 -4,51 -14,74 -9,25 -24,47 -43,65 -19,17 -49,58 -65,38 -18,-21 21,-50 34,-74 z m 135,-59 c -3,17 14,33 12,49 -2,15 -21,24 -23,39 -2,20 0,43 11,59 9,11 31,1 41,11 6,7 -9,24 0,29 16,9 38,-1 57,2 10,1 20,14 30,11 10,-3 7,-20 16,-25 13,-8 31,-7 45,-13 14,-6 24,-22 38,-23 11,-1 15,20 25,19 11,0 23,-10 25,-21 3,-15 -19,-32 -11,-46 12,-21 44,-23 61,-42 18,-20 56,-50 40,-72 -22,-30 -76,-38 -109,-21 -27,14 0,65 -19,88 -10,12 -20,-27 -19,-42 0,-9 20,-7 21,-15 1,-12 -7,-25 -17,-29 -27,-10 -57,-9 -86,-10 -27,-1 -54,-2 -80,4 -12,3 -21,13 -31,21 -9,8 -24,15 -27,27 z m 81,-76 c 22,-3 47,4 66,-8 13,-8 25,-32 14,-42 -18,-16 -52,6 -71,-8 -10,-7 22,-35 10,-36 -23,-2 -43,18 -61,33 -12,9 -24,22 -27,38 -2,11 2,28 13,32 9,3 11,-15 16,-23 5,-9 7,-22 17,-26 6,-3 16,6 15,13 -2,12 -26,18 -23,30 3,10 20,-2 31,-3 z m -111,-2 c -18,4 -10,40 0,55 6,9 32,3 32,-8 0,-19 -13,-52 -32,-47 z" />
</clipPath>
<clipPath id="circle">
<circle id="sky" r="735" cx="0" cy="0" style="fill:#28166f" />
</clipPath>
<path id="O" d="M 0,0 A 31.5,35 0 0 0 0,-70 31.5,35 0 0 0 0,0 m 0,-13 a 18.5,22 0 0 0 0,-44 18.5,22 0 0 0 0,44" style="fill-rule:evenodd" />
<g id="R">
<use xlink:href="#P" id="use12" x="0" y="0" width="5848" height="5823" />
<path d="m 28,0 c 0,-10 0,-32 -15,-32 H -6 c 22,0 22,22 22,32" id="path14" />
</g>
<path id="D" d="m -31.5,0 h 33 a 30,30 0 0 0 30,-30 v -10 a 30,30 0 0 0 -30,-30 h -33 z m 13,-13 h 19 a 19,19 0 0 0 19,-19 v -6 a 19,19 0 0 0 -19,-19 h -19 z" style="fill-rule:evenodd" />
<path id="E" d="M 0,0 H 63 V -13 H 12 V -31 H 52 V -43 H 12 V -57 H 60 V -70 H 0 z" transform="translate(-31.5,0)" />
<path id="M" d="m -31.5,0 h 12 v -48 l 14,48 h 11 l 14,-48 V 0 h 12 V -70 H 14 L 0,-22 -14,-70 h -17.5 z" />
<path id="E_" d="m -26.25,0 h 52.5 v -12 h -40.5 v -16 h 33 v -12 h -33 V -51 H 25 v -12 h -51.25 z" />
<path id="P" d="m -31.5,0 h 13 v -26 h 28 a 22,22 0 0 0 0,-44 h -40 z m 13,-39 h 27 a 9,9 0 0 0 0,-18 h -27 z" style="fill-rule:evenodd" />
<g id="G">
<use xlink:href="#O" id="use22" x="0" y="0" width="5848" height="5823" />
<rect x="5" y="-35" width="26.5" height="10" id="rect24" />
<rect x="21.5" y="-35" width="10" height="35" id="rect26" />
<rect y="-47" width="40" height="12" id="rect28" x="0" style="fill:#ffffff" />
</g>
<path id="S" d="m -15.75,-22 c 0,7 6.75,10.5 16.75,10.5 10,0 14.74,-3.25 14.75,-7.75 C 15.75,-33.5 -31,-24.5 -30.75,-49.5 -30.5,-71 -6,-70 3,-70 c 9,0 26,4 25.75,21.25 l -15.25,0 c 0,-7.5 -7,-10.25 -15,-10.25 -7.75,0 -13.25,1.25 -13.25,8.5 -0.25,11.75 46.25,4 46.25,28.75 C 31.5,-3.5 13.5,0 0,0 -11.5,0 -31.55,-4.5 -31.5,-22 z" />
<g id="norm_star" style="fill:#ffffff">
<g id="cone">
<polygon id="triangle" points="0.5,1 0,0 0,1 " transform="matrix(0.95105652,0.30901699,-0.30901699,0.95105652,0,-1)" />
<use xlink:href="#triangle" transform="scale(-1,1)" id="use34" x="0" y="0" width="5848" height="5823" />
</g>
<use xlink:href="#cone" transform="matrix(0.30901699,0.95105652,-0.95105652,0.30901699,0,0)" id="use36" x="0" y="0" width="5848" height="5823" />
<use xlink:href="#cone" transform="matrix(0.30901699,-0.95105652,0.95105652,0.30901699,0,0)" id="use38" x="0" y="0" width="5848" height="5823" />
<use xlink:href="#cone" transform="matrix(-0.80901699,0.58778525,-0.58778525,-0.80901699,0,0)" id="use40" x="0" y="0" width="5848" height="5823" />
<use xlink:href="#cone" transform="matrix(-0.80901699,-0.58778525,0.58778525,-0.80901699,0,0)" id="use42" x="0" y="0" width="5848" height="5823" />
</g>
<use id="star1" xlink:href="#norm_star" transform="scale(31.5,31.5)" x="0" y="0" width="5848" height="5823" />
<use id="star2" xlink:href="#norm_star" transform="scale(26.25,26.25)" x="0" y="0" width="5848" height="5823" />
<use id="star3" xlink:href="#norm_star" transform="scale(21,21)" x="0" y="0" width="5848" height="5823" />
<use id="star4" xlink:href="#norm_star" transform="scale(15,15)" x="0" y="0" width="5848" height="5823" />
<use id="star5" xlink:href="#norm_star" transform="scale(10.5,10.5)" x="0" y="0" width="5848" height="5823" />
</defs>
<g clip-path="url(#shape)" id="g49" transform="matrix(0.5721013,0,0,0.5721013,-1536.1316,-6.6162017)">
<g transform="matrix(1.5,0,0,1.5,-450,2100)" id="g51">
<rect x="-2100" y="-1470" width="4200" height="5940" id="rect53" style="fill:#00923f" />
<path d="M -1743,0 0,1113 1743,0 0,-1113 z" id="path55" style="fill:#f8c300" />
<use xlink:href="#sky" id="use57" x="0" y="0" width="5848" height="5823" />
<circle cx="-420" cy="1470" clip-path="url(#circle)" r="1732.5" id="circle59" d="m 1312.5,1470 c 0,956.8333 -775.66667,1732.5 -1732.5,1732.5 -956.8333,0 -1732.5,-775.6667 -1732.5,-1732.5 0,-956.83333 775.6667,-1732.5 1732.5,-1732.5 956.83333,0 1732.5,775.66667 1732.5,1732.5 z" style="fill:none;stroke:#ffffff;stroke-width:105" />
<g transform="translate(-420,1470)" id="g61" style="fill:#00923f">
<g id="ORDEM" transform="matrix(0.99254615,-0.12186934,0.12186934,0.99254615,0,0)">
<use xlink:href="#O" transform="translate(0,-1697.5)" id="use64" x="0" y="0" width="5848" height="5823" />
<use xlink:href="#R" transform="matrix(0.99862953,0.05233596,-0.05233596,0.99862953,88.840286,-1695.1736)" id="use66" x="0" y="0" width="5848" height="5823" />
<use xlink:href="#D" transform="matrix(0.9945219,0.10452846,-0.10452846,0.9945219,177.43707,-1688.2009)" id="use68" x="0" y="0" width="5848" height="5823" />
<use xlink:href="#E" transform="matrix(0.98768834,0.15643447,-0.15643447,0.98768834,265.5475,-1676.601)" id="use70" x="0" y="0" width="5848" height="5823" />
<use xlink:href="#M" transform="matrix(0.9781476,0.20791169,-0.20791169,0.9781476,352.9301,-1660.4056)" id="use72" x="0" y="0" width="5848" height="5823" />
</g>
<use xlink:href="#E_" transform="matrix(0.98555606,0.1693495,-0.1693495,0.98555606,287.47078,-1672.9814)" id="use74" x="0" y="0" width="5848" height="5823" />
<g id="PROGRESSO" transform="matrix(0.96814764,0.25038,-0.25038,0.96814764,0,0)">
<use xlink:href="#P" transform="translate(0,-1697.5)" id="use77" x="0" y="0" width="5848" height="5823" />
<use xlink:href="#R" transform="matrix(0.99862953,0.05233596,-0.05233596,0.99862953,88.840286,-1695.1736)" id="use79" x="0" y="0" width="5848" height="5823" />
<use xlink:href="#O" transform="matrix(0.9945219,0.10452846,-0.10452846,0.9945219,177.43707,-1688.2009)" id="use81" x="0" y="0" width="5848" height="5823" />
<use xlink:href="#G" transform="matrix(0.98768834,0.15643447,-0.15643447,0.98768834,265.5475,-1676.601)" id="use83" x="0" y="0" width="5848" height="5823" />
<use xlink:href="#R" transform="matrix(0.9781476,0.20791169,-0.20791169,0.9781476,352.9301,-1660.4056)" id="use85" x="0" y="0" width="5848" height="5823" />
<use xlink:href="#E" transform="matrix(0.96592583,0.25881905,-0.25881905,0.96592583,439.34533,-1639.6591)" id="use87" x="0" y="0" width="5848" height="5823" />
<use xlink:href="#S" transform="matrix(0.95105652,0.30901699,-0.30901699,0.95105652,524.55635,-1614.4184)" id="use89" x="0" y="0" width="5848" height="5823" />
<use xlink:href="#S" transform="matrix(0.93358043,0.35836795,-0.35836795,0.93358043,608.32959,-1584.7528)" id="use91" x="0" y="0" width="5848" height="5823" />
<use xlink:href="#O" transform="matrix(0.91354546,0.40673664,-0.40673664,0.91354546,690.43545,-1550.7434)" id="use93" x="0" y="0" width="5848" height="5823" />
</g>
</g>
<use id="Alpha_Canis_Minoris" xlink:href="#star1" transform="matrix(0.92718385,0.37460659,-0.37460659,0.92718385,-600,-132)" x="0" y="0" width="5848" height="5823" />
<g id="Canis_Majoris">
<use id="Alpha_Canis_Majoris" xlink:href="#star1" transform="matrix(0.9961947,-0.08715574,0.08715574,0.9961947,-535,177)" x="0" y="0" width="5848" height="5823" />
<use id="Beta_Canis_Majoris" xlink:href="#star3" transform="matrix(0.9961947,0.08715574,-0.08715574,0.9961947,-625,243)" x="0" y="0" width="5848" height="5823" />
<use id="Gamma_Canis_Majoris" xlink:href="#star4" transform="translate(-463,132)" x="0" y="0" width="5848" height="5823" />
<use id="Delta_Canis_Majoris" xlink:href="#star2" transform="translate(-382,250)" x="0" y="0" width="5848" height="5823" />
<use id="Epsilon_Canis_Majoris" xlink:href="#star2" transform="translate(-404,323)" x="0" y="0" width="5848" height="5823" />
</g>
<use id="Alpha_Virginis" xlink:href="#star1" transform="translate(228,-228)" x="0" y="0" width="5848" height="5823" />
<g id="Scorpio">
<use id="Alpha_Scorpii" xlink:href="#star1" transform="translate(515,258)" x="0" y="0" width="5848" height="5823" />
<use id="Beta_Scorpii" xlink:href="#star3" transform="matrix(0.9961947,0.08715574,-0.08715574,0.9961947,617,265)" x="0" y="0" width="5848" height="5823" />
<use id="Epsilon_Scorpii" xlink:href="#star2" transform="matrix(0.99939083,0.0348995,-0.0348995,0.99939083,545,323)" x="0" y="0" width="5848" height="5823" />
<use id="Theta_Scorpii" xlink:href="#star2" transform="translate(368,477)" x="0" y="0" width="5848" height="5823" />
<use id="Iota_Scorpii" xlink:href="#star3" transform="translate(367,551)" x="0" y="0" width="5848" height="5823" />
<use id="Kappa_Scorpii" xlink:href="#star3" transform="translate(441,419)" x="0" y="0" width="5848" height="5823" />
<use id="Lambda_Scorpii" xlink:href="#star2" transform="translate(500,382)" x="0" y="0" width="5848" height="5823" />
<use id="Mu_Scorpii" xlink:href="#star3" transform="translate(365,405)" x="0" y="0" width="5848" height="5823" />
</g>
<g id="Hydra">
<use id="Alpha_Hydrae" xlink:href="#star2" transform="matrix(0.8660254,0.5,-0.5,0.8660254,-280,30)" x="0" y="0" width="5848" height="5823" />
<use id="Gamma_Hydrae" xlink:href="#star3" transform="matrix(0.95630476,0.2923717,-0.2923717,0.95630476,200,-37)" x="0" y="0" width="5848" height="5823" />
</g>
<g id="Crux">
<use id="Alpha_Crucis" xlink:href="#star1" transform="translate(0,330)" x="0" y="0" width="5848" height="5823" />
<use id="Beta_Crucis" xlink:href="#star2" transform="translate(85,184)" x="0" y="0" width="5848" height="5823" />
<use id="Gamma_Crucis" xlink:href="#star2" transform="matrix(0.98480775,-0.17364818,0.17364818,0.98480775,0,118)" x="0" y="0" width="5848" height="5823" />
<use id="Delta_Crucis" xlink:href="#star3" transform="matrix(0.98480775,-0.17364818,0.17364818,0.98480775,-74,184)" x="0" y="0" width="5848" height="5823" />
<use id="Epsilon_Crucis" xlink:href="#star4" transform="matrix(0.98480775,-0.17364818,0.17364818,0.98480775,-37,235)" x="0" y="0" width="5848" height="5823" />
</g>
<g id="Triangulum_Australe">
<use id="Alpha_Trianguli_Australe" xlink:href="#star2" transform="translate(220,495)" x="0" y="0" width="5848" height="5823" />
<use id="Beta_Trianguli_Australe" xlink:href="#star3" transform="matrix(0.9961947,0.08715574,-0.08715574,0.9961947,283,430)" x="0" y="0" width="5848" height="5823" />
<use id="Gamma_Trianguli_Australe" xlink:href="#star3" transform="matrix(0.9961947,0.08715574,-0.08715574,0.9961947,162,412)" x="0" y="0" width="5848" height="5823" />
</g>
<use id="Alpha_Carinae" xlink:href="#star1" transform="translate(-295,390)" x="0" y="0" width="5848" height="5823" />
<use id="Sigma_Octantis" xlink:href="#star5" transform="translate(0,575)" x="0" y="0" width="5848" height="5823" />
</g>
</g>
</svg>
